# xmcd
#
# Track frame offsets: 
#        183
#        16145
#        36445
#        57203
#        89115
#        111228
#        128735
#        147598
#        162380
#        184065
#        200213
#        234353
#        252555
#        265415
#        279995
#        298570
#        319413
#
# Disc length: 4471 seconds
#
# Revision: 0
# Processed by: cddbd v1.5.2PL0 Copyright (c) Steve Scherf et al.
# Submitted via: ExactAudioCopy v0.99pb5
#
DISCID=0e117511
DTITLE=Melba Moore - This Is It - Melba
DYEAR=1992
DGENRE=Disco
TTITLE0=This Is It
TTITLE1=Free
TTITLE2=One Less Morning
TTITLE3=Make Me Believe In You
TTITLE4=Lean On Me
TTITLE5=Stay Awhile
TTITLE6=Playboy Scout
TTITLE7=Blood Red Roses
TTITLE8=Brand New
TTITLE9=The Way You Make Me Feel
TTITLE10=Good Love Makes Everything Alright
TTITLE11=The Long And Winding Road
TTITLE12=Ain't No Love Lost
TTITLE13=The Greatest Feeling
TTITLE14=Mighty Clouds Of Joy
TTITLE15=(I Need) Someone
TTITLE16=So Many Mountains
EXTD=
EXTT0=
EXTT1=
EXTT2=
EXTT3=
EXTT4=
EXTT5=
EXTT6=
EXTT7=
EXTT8=
EXTT9=
EXTT10=
EXTT11=
EXTT12=
EXTT13=
EXTT14=
EXTT15=
EXTT16=
PLAYORDER=
